<svg xmlns="http://www.w3.org/2000/svg" width="1600" height="840" fill="none" viewBox="0 0 1600 840"><g clip-path="url(#clip0_538_18)"><rect width="1600" height="840" fill="#171123"/><g filter="url(#filter0_f_538_18)"><circle r="216" fill="#2C57A6"/></g><g filter="url(#filter1_f_538_18)"><circle cx="750" cy="840" r="216" fill="#112B4B"/></g><g filter="url(#filter2_f_538_18)"><ellipse cx="1343.5" cy="-39" fill="#372248" rx="179.5" ry="179"/></g><circle cx="18" cy="833" r="139" stroke="#fff" stroke-opacity=".1" stroke-width="6"/><path stroke="#fff" stroke-opacity=".1" stroke-width="6" d="M138 833.5C138 900.614 83.8151 955 17 955C-49.8151 955 -104 900.614 -104 833.5C-104 766.386 -49.8151 712 17 712C83.8151 712 138 766.386 138 833.5Z"/><path fill="#fff" d="M497.12 425.29L480.669 454.903L477.927 459.839L463.731 434.702L434.367 377.437C433.244 375.247 434.834 372.645 437.295 372.645H522.895L510.282 386.355L494.378 403.903L474.088 425.29H497.12Z"/><path fill="#FDBB30" stroke="#FDBB30" stroke-width="2" d="M503.634 422.825L504.501 421.325H502.768H483.733L541.222 359.359L518.327 408.355L517.662 409.779H519.233H542.417L468.344 483.906L503.634 422.825Z"/><path fill="#fff" d="M630.93 478C629.455 478 628.349 477.737 627.612 477.21C626.98 476.683 626.348 475.63 625.716 474.05L584.636 374.984C584.32 374.352 584.162 373.72 584.162 373.088C584.162 372.351 584.373 371.771 584.794 371.35C585.321 370.823 586.005 370.56 586.848 370.56H600.436C601.805 370.56 602.859 370.823 603.596 371.35C604.333 371.877 604.913 372.719 605.334 373.878L635.196 449.718L665.058 373.878C665.479 372.719 666.059 371.877 666.796 371.35C667.533 370.823 668.587 370.56 669.956 370.56H683.544C684.387 370.56 685.019 370.823 685.44 371.35C685.967 371.771 686.23 372.351 686.23 373.088C686.23 373.72 686.072 374.352 685.756 374.984L644.834 474.05C644.202 475.63 643.517 476.683 642.78 477.21C642.043 477.737 640.937 478 639.462 478H630.93ZM725.914 480.37C717.698 480.37 710.272 479.001 703.636 476.262C697 473.418 691.681 469.099 687.678 463.306C683.781 457.407 681.832 450.087 681.832 441.344C681.832 427.756 685.466 417.433 692.734 410.376C700.002 403.319 710.325 399.79 723.702 399.79C736.974 399.79 746.981 403.213 753.722 410.06C760.569 416.907 763.992 426.808 763.992 439.764C763.992 443.451 762.307 445.294 758.936 445.294H700.95C700.95 452.246 703.373 457.618 708.218 461.41C713.063 465.097 719.805 466.94 728.442 466.94C736.763 466.94 744.242 465.044 750.878 461.252C751.615 460.831 752.195 460.62 752.616 460.62C753.353 460.62 753.933 461.094 754.354 462.042L758.146 468.836C758.462 469.468 758.62 470.047 758.62 470.574C758.62 471.311 758.146 471.996 757.198 472.628C752.879 475.261 748.192 477.21 743.136 478.474C738.185 479.738 732.445 480.37 725.914 480.37ZM745.664 433.602C745.664 427.071 743.821 421.963 740.134 418.276C736.553 414.589 731.128 412.746 723.86 412.746C716.487 412.746 710.799 414.642 706.796 418.434C702.899 422.226 700.95 427.282 700.95 433.602H745.664ZM785.268 478C783.161 478 781.634 477.526 780.686 476.578C779.843 475.63 779.422 474.208 779.422 472.312V376.406C779.422 374.405 779.843 372.93 780.686 371.982C781.634 371.034 783.161 370.56 785.268 370.56H793.642C795.748 370.56 797.276 371.034 798.224 371.982C799.172 372.93 799.646 374.405 799.646 376.406V472.312C799.646 474.208 799.172 475.63 798.224 476.578C797.381 477.526 795.854 478 793.642 478H785.268ZM860.016 480.37C830.102 480.37 815.144 466.887 815.144 439.922C815.144 432.022 816.672 425.07 819.726 419.066C822.781 412.957 827.152 408.217 832.84 404.846C838.634 401.475 845.428 399.79 853.222 399.79C864.282 399.79 872.288 402.265 877.238 407.216V376.406C877.238 374.405 877.712 372.93 878.66 371.982C879.608 371.034 881.136 370.56 883.242 370.56H891.142C893.249 370.56 894.776 371.034 895.724 371.982C896.672 372.93 897.146 374.405 897.146 376.406V470.1C893.144 473.049 887.772 475.525 881.03 477.526C874.289 479.422 867.284 480.37 860.016 480.37ZM860.49 465.992C867.548 465.992 873.13 464.728 877.238 462.2V429.968C877.238 424.807 875.448 420.909 871.866 418.276C868.285 415.643 863.65 414.326 857.962 414.326C850.273 414.326 844.532 416.643 840.74 421.278C836.948 425.913 835.052 432.285 835.052 440.396C835.052 449.455 837.159 455.985 841.372 459.988C845.586 463.991 851.958 465.992 860.49 465.992ZM953.164 480.37C939.47 480.37 928.884 476.789 921.406 469.626C914.032 462.358 910.346 452.509 910.346 440.08C910.346 427.651 914.032 417.855 921.406 410.692C928.884 403.424 939.47 399.79 953.164 399.79C966.857 399.79 977.443 403.424 984.922 410.692C992.4 417.855 996.14 427.651 996.14 440.08C996.14 452.509 992.4 462.358 984.922 469.626C977.443 476.789 966.857 480.37 953.164 480.37ZM953.164 465.518C960.642 465.518 966.33 463.359 970.228 459.04C974.125 454.721 976.074 448.401 976.074 440.08C976.074 431.864 974.125 425.649 970.228 421.436C966.33 417.117 960.642 414.958 953.164 414.958C945.79 414.958 940.102 417.117 936.1 421.436C932.202 425.649 930.254 431.864 930.254 440.08C930.254 448.296 932.202 454.616 936.1 459.04C940.102 463.359 945.79 465.518 953.164 465.518ZM1017.64 478C1015.54 478 1014.01 477.526 1013.06 476.578C1012.11 475.63 1011.64 474.208 1011.64 472.312V406.426C1011.64 404.846 1011.9 403.74 1012.43 403.108C1012.96 402.476 1014.06 402.16 1015.75 402.16H1024.75C1025.91 402.16 1026.75 402.423 1027.28 402.95C1027.81 403.371 1028.12 404.161 1028.23 405.32L1028.7 411.008C1034.92 403.529 1043.08 399.79 1053.19 399.79C1057.83 399.79 1061.36 400.58 1063.78 402.16C1064.41 402.581 1064.78 403.055 1064.88 403.582C1065.1 404.003 1065.1 404.53 1064.88 405.162L1062.04 414.642C1061.72 415.695 1061.15 416.222 1060.3 416.222L1059.04 415.906C1056.51 414.747 1053.61 414.168 1050.35 414.168C1044.98 414.168 1040.55 415.695 1037.08 418.75C1033.6 421.699 1031.86 425.755 1031.86 430.916V472.312C1031.86 474.208 1031.39 475.63 1030.44 476.578C1029.6 477.526 1028.07 478 1025.86 478H1017.64ZM1108.02 480.37C1097.7 480.37 1089.48 477.263 1083.37 471.048C1077.26 464.728 1074.21 455.88 1074.21 444.504C1074.21 435.656 1076.16 427.861 1080.05 421.12C1083.95 414.273 1089.48 409.007 1096.64 405.32C1103.91 401.633 1112.34 399.79 1121.92 399.79C1135.3 399.79 1146.63 402.95 1155.89 409.27V473.734C1155.89 475.314 1155.53 476.42 1154.79 477.052C1154.16 477.684 1153 478 1151.31 478H1142.62C1141.46 478 1140.57 477.789 1139.94 477.368C1139.41 476.841 1139.04 476.051 1138.83 474.998L1137.57 468.836C1134.3 472.839 1130.25 475.788 1125.4 477.684C1120.66 479.475 1114.87 480.37 1108.02 480.37ZM1115.6 465.992C1121.19 465.992 1126.09 464.359 1130.3 461.094C1134.62 457.829 1136.78 453.51 1136.78 448.138V417.328C1134.56 416.169 1132.3 415.379 1129.98 414.958C1127.77 414.431 1125.03 414.168 1121.77 414.168C1113.45 414.168 1106.76 416.801 1101.7 422.068C1096.64 427.335 1094.12 434.603 1094.12 443.872C1094.12 451.456 1095.85 457.039 1099.33 460.62C1102.91 464.201 1108.34 465.992 1115.6 465.992Z"/><circle cx="1059" cy="-40" r="139" stroke="#fff" stroke-opacity=".1" stroke-width="6"/><path stroke="#fff" stroke-opacity=".1" stroke-width="6" d="M1179 -39.5C1179 27.614 1124.82 82 1058 82C991.185 82 937 27.614 937 -39.5C937 -106.614 991.185 -161 1058 -161C1124.82 -161 1179 -106.614 1179 -39.5Z"/></g><defs><filter id="filter0_f_538_18" width="1020" height="1020" x="-510" y="-510" color-interpolation-filters="sRGB" filterUnits="userSpaceOnUse"><feFlood flood-opacity="0" result="BackgroundImageFix"/><feBlend in="SourceGraphic" in2="BackgroundImageFix" mode="normal" result="shape"/><feGaussianBlur result="effect1_foregroundBlur_538_18" stdDeviation="147"/></filter><filter id="filter1_f_538_18" width="1060" height="1060" x="220" y="310" color-interpolation-filters="sRGB" filterUnits="userSpaceOnUse"><feFlood flood-opacity="0" result="BackgroundImageFix"/><feBlend in="SourceGraphic" in2="BackgroundImageFix" mode="normal" result="shape"/><feGaussianBlur result="effect1_foregroundBlur_538_18" stdDeviation="157"/></filter><filter id="filter2_f_538_18" width="747" height="746" x="970" y="-412" color-interpolation-filters="sRGB" filterUnits="userSpaceOnUse"><feFlood flood-opacity="0" result="BackgroundImageFix"/><feBlend in="SourceGraphic" in2="BackgroundImageFix" mode="normal" result="shape"/><feGaussianBlur result="effect1_foregroundBlur_538_18" stdDeviation="97"/></filter><clipPath id="clip0_538_18"><rect width="1600" height="840" fill="#fff"/></clipPath></defs></svg>